<?xml version="1.0" encoding="UTF-8" standalone="no"?>
<!DOCTYPE svg PUBLIC "-//W3C//DTD SVG 1.1//EN"
 "http://www.w3.org/Graphics/SVG/1.1/DTD/svg11.dtd">
<!-- Generated by graphviz version 2.38.0 (20140413.2041)
 -->
<!-- Title: controllers_diagram Pages: 1 -->
<svg width="927pt" height="899pt"
 viewBox="0.00 0.00 927.00 899.00" xmlns="http://www.w3.org/2000/svg" xmlns:xlink="http://www.w3.org/1999/xlink">
<g id="graph0" class="graph" transform="scale(1 1) rotate(0) translate(395.5 487.5)">
<title>controllers_diagram</title>
<polygon fill="none" stroke="none" points="-395.5,411.5 -395.5,-487.5 531.5,-487.5 531.5,411.5 -395.5,411.5"/>
<!-- _diagram_info -->
<g id="node1" class="node"><title>_diagram_info</title>
<text text-anchor="start" x="-281" y="225.4" font-family="Times,serif" font-size="13.00">Controllers diagram</text>
<text text-anchor="start" x="-281" y="239.4" font-family="Times,serif" font-size="13.00">Date: Mar 09 2017 &#45; 02:40</text>
<text text-anchor="start" x="-281" y="253.4" font-family="Times,serif" font-size="13.00">Migration version: 20170309013516</text>
<text text-anchor="start" x="-281" y="267.4" font-family="Times,serif" font-size="13.00">Generated by RailRoady 1.5.2</text>
<text text-anchor="start" x="-281" y="281.4" font-family="Times,serif" font-size="13.00">http://railroady.prestonlee.com</text>
</g>
<!-- SourceController -->
<g id="node2" class="node"><title>SourceController</title>
<path fill="none" stroke="black" d="M-39,-204.5C-39,-204.5 87,-204.5 87,-204.5 93,-204.5 99,-210.5 99,-216.5 99,-216.5 99,-375.5 99,-375.5 99,-381.5 93,-387.5 87,-387.5 87,-387.5 -39,-387.5 -39,-387.5 -45,-387.5 -51,-381.5 -51,-375.5 -51,-375.5 -51,-216.5 -51,-216.5 -51,-210.5 -45,-204.5 -39,-204.5"/>
<text text-anchor="middle" x="24" y="-372.3" font-family="Times,serif" font-size="14.00">SourceController</text>
<polyline fill="none" stroke="black" points="-51,-364.5 99,-364.5 "/>
<text text-anchor="start" x="-43" y="-349.3" font-family="Times,serif" font-size="14.00">autocomplete_lieu_nom</text>
<text text-anchor="start" x="-43" y="-334.3" font-family="Times,serif" font-size="14.00">create</text>
<text text-anchor="start" x="-43" y="-319.3" font-family="Times,serif" font-size="14.00">get_autocomplete_items</text>
<text text-anchor="start" x="-43" y="-304.3" font-family="Times,serif" font-size="14.00">get_autocomplete_order</text>
<text text-anchor="start" x="-43" y="-289.3" font-family="Times,serif" font-size="14.00">get_prefix</text>
<text text-anchor="start" x="-43" y="-274.3" font-family="Times,serif" font-size="14.00">new</text>
<text text-anchor="start" x="-43" y="-259.3" font-family="Times,serif" font-size="14.00">proxi</text>
<polyline fill="none" stroke="black" points="-51,-251.5 99,-251.5 "/>
<polyline fill="none" stroke="black" points="-51,-227.5 99,-227.5 "/>
<text text-anchor="start" x="-43" y="-212.3" font-family="Times,serif" font-size="14.00">_layout</text>
</g>
<!-- LieuxController -->
<g id="node3" class="node"><title>LieuxController</title>
<path fill="none" stroke="black" d="M-362,-255.5C-362,-255.5 -282,-255.5 -282,-255.5 -276,-255.5 -270,-261.5 -270,-267.5 -270,-267.5 -270,-336.5 -270,-336.5 -270,-342.5 -276,-348.5 -282,-348.5 -282,-348.5 -362,-348.5 -362,-348.5 -368,-348.5 -374,-342.5 -374,-336.5 -374,-336.5 -374,-267.5 -374,-267.5 -374,-261.5 -368,-255.5 -362,-255.5"/>
<text text-anchor="middle" x="-322" y="-333.3" font-family="Times,serif" font-size="14.00">LieuxController</text>
<polyline fill="none" stroke="black" points="-374,-325.5 -270,-325.5 "/>
<text text-anchor="start" x="-366" y="-310.3" font-family="Times,serif" font-size="14.00">index</text>
<polyline fill="none" stroke="black" points="-374,-302.5 -270,-302.5 "/>
<polyline fill="none" stroke="black" points="-374,-278.5 -270,-278.5 "/>
<text text-anchor="start" x="-366" y="-263.3" font-family="Times,serif" font-size="14.00">_layout</text>
</g>
<!-- ListeLieuController -->
<g id="node4" class="node"><title>ListeLieuController</title>
<path fill="none" stroke="black" d="M-226,-238.5C-226,-238.5 -100,-238.5 -100,-238.5 -94,-238.5 -88,-244.5 -88,-250.5 -88,-250.5 -88,-379.5 -88,-379.5 -88,-385.5 -94,-391.5 -100,-391.5 -100,-391.5 -226,-391.5 -226,-391.5 -232,-391.5 -238,-385.5 -238,-379.5 -238,-379.5 -238,-250.5 -238,-250.5 -238,-244.5 -232,-238.5 -226,-238.5"/>
<text text-anchor="middle" x="-163" y="-376.3" font-family="Times,serif" font-size="14.00">ListeLieuController</text>
<polyline fill="none" stroke="black" points="-238,-368.5 -88,-368.5 "/>
<text text-anchor="start" x="-230" y="-353.3" font-family="Times,serif" font-size="14.00">all</text>
<text text-anchor="start" x="-230" y="-338.3" font-family="Times,serif" font-size="14.00">autocomplete_lieu_nom</text>
<text text-anchor="start" x="-230" y="-323.3" font-family="Times,serif" font-size="14.00">get_autocomplete_items</text>
<text text-anchor="start" x="-230" y="-308.3" font-family="Times,serif" font-size="14.00">get_autocomplete_order</text>
<text text-anchor="start" x="-230" y="-293.3" font-family="Times,serif" font-size="14.00">get_prefix</text>
<polyline fill="none" stroke="black" points="-238,-285.5 -88,-285.5 "/>
<polyline fill="none" stroke="black" points="-238,-261.5 -88,-261.5 "/>
<text text-anchor="start" x="-230" y="-246.3" font-family="Times,serif" font-size="14.00">_layout</text>
</g>
<!-- RasbSec::SessionsController -->
<g id="node5" class="node"><title>RasbSec::SessionsController</title>
<path fill="none" stroke="black" d="M148.5,136C148.5,136 297.5,136 297.5,136 303.5,136 309.5,130 309.5,124 309.5,124 309.5,-64 309.5,-64 309.5,-70 303.5,-76 297.5,-76 297.5,-76 148.5,-76 148.5,-76 142.5,-76 136.5,-70 136.5,-64 136.5,-64 136.5,124 136.5,124 136.5,130 142.5,136 148.5,136"/>
<text text-anchor="middle" x="223" y="-60.8" font-family="Times,serif" font-size="14.00">RasbSec::SessionsController</text>
<polyline fill="none" stroke="black" points="136.5,-53 309.5,-53 "/>
<text text-anchor="start" x="144.5" y="-37.8" font-family="Times,serif" font-size="14.00">create</text>
<text text-anchor="start" x="144.5" y="-22.8" font-family="Times,serif" font-size="14.00">destroy</text>
<text text-anchor="start" x="144.5" y="-7.8" font-family="Times,serif" font-size="14.00">new</text>
<polyline fill="none" stroke="black" points="136.5,-0 309.5,-0 "/>
<text text-anchor="start" x="144.5" y="15.2" font-family="Times,serif" font-size="14.00">auth_options</text>
<text text-anchor="start" x="144.5" y="30.2" font-family="Times,serif" font-size="14.00">serialize_options</text>
<text text-anchor="start" x="144.5" y="45.2" font-family="Times,serif" font-size="14.00">sign_in_params</text>
<text text-anchor="start" x="144.5" y="60.2" font-family="Times,serif" font-size="14.00">translation_scope</text>
<polyline fill="none" stroke="black" points="136.5,68 309.5,68 "/>
<text text-anchor="start" x="144.5" y="83.2" font-family="Times,serif" font-size="14.00">_layout</text>
<text text-anchor="start" x="144.5" y="98.2" font-family="Times,serif" font-size="14.00">all_signed_out?</text>
<text text-anchor="start" x="144.5" y="113.2" font-family="Times,serif" font-size="14.00">respond_to_on_destroy</text>
<text text-anchor="start" x="144.5" y="128.2" font-family="Times,serif" font-size="14.00">verify_signed_out_user</text>
</g>
<!-- RasbSec::ConfirmationsController -->
<g id="node6" class="node"><title>RasbSec::ConfirmationsController</title>
<path fill="none" stroke="black" d="M334.5,-103C334.5,-103 515.5,-103 515.5,-103 521.5,-103 527.5,-109 527.5,-115 527.5,-115 527.5,-185 527.5,-185 527.5,-191 521.5,-197 515.5,-197 515.5,-197 334.5,-197 334.5,-197 328.5,-197 322.5,-191 322.5,-185 322.5,-185 322.5,-115 322.5,-115 322.5,-109 328.5,-103 334.5,-103"/>
<text text-anchor="middle" x="425" y="-181.8" font-family="Times,serif" font-size="14.00">RasbSec::ConfirmationsController</text>
<polyline fill="none" stroke="black" points="322.5,-174 527.5,-174 "/>
<polyline fill="none" stroke="black" points="322.5,-150 527.5,-150 "/>
<polyline fill="none" stroke="black" points="322.5,-126 527.5,-126 "/>
<text text-anchor="start" x="330.5" y="-110.8" font-family="Times,serif" font-size="14.00">_layout</text>
</g>
<!-- RasbSec::UnlocksController -->
<g id="node7" class="node"><title>RasbSec::UnlocksController</title>
<path fill="none" stroke="black" d="M-293.5,-103C-293.5,-103 -146.5,-103 -146.5,-103 -140.5,-103 -134.5,-109 -134.5,-115 -134.5,-115 -134.5,-185 -134.5,-185 -134.5,-191 -140.5,-197 -146.5,-197 -146.5,-197 -293.5,-197 -293.5,-197 -299.5,-197 -305.5,-191 -305.5,-185 -305.5,-185 -305.5,-115 -305.5,-115 -305.5,-109 -299.5,-103 -293.5,-103"/>
<text text-anchor="middle" x="-220" y="-181.8" font-family="Times,serif" font-size="14.00">RasbSec::UnlocksController</text>
<polyline fill="none" stroke="black" points="-305.5,-174 -134.5,-174 "/>
<polyline fill="none" stroke="black" points="-305.5,-150 -134.5,-150 "/>
<polyline fill="none" stroke="black" points="-305.5,-126 -134.5,-126 "/>
<text text-anchor="start" x="-297.5" y="-110.8" font-family="Times,serif" font-size="14.00">_layout</text>
</g>
<!-- RasbSec::OmniauthCallbacksController -->
<g id="node8" class="node"><title>RasbSec::OmniauthCallbacksController</title>
<path fill="none" stroke="black" d="M148,271C148,271 358,271 358,271 364,271 370,265 370,259 370,259 370,189 370,189 370,183 364,177 358,177 358,177 148,177 148,177 142,177 136,183 136,189 136,189 136,259 136,259 136,265 142,271 148,271"/>
<text text-anchor="middle" x="253" y="192.2" font-family="Times,serif" font-size="14.00">RasbSec::OmniauthCallbacksController</text>
<polyline fill="none" stroke="black" points="136,200 370,200 "/>
<polyline fill="none" stroke="black" points="136,224 370,224 "/>
<polyline fill="none" stroke="black" points="136,248 370,248 "/>
<text text-anchor="start" x="144" y="263.2" font-family="Times,serif" font-size="14.00">_layout</text>
</g>
<!-- RasbSec::PasswordsController -->
<g id="node9" class="node"><title>RasbSec::PasswordsController</title>
<path fill="none" stroke="black" d="M335.5,-239C335.5,-239 494.5,-239 494.5,-239 500.5,-239 506.5,-245 506.5,-251 506.5,-251 506.5,-321 506.5,-321 506.5,-327 500.5,-333 494.5,-333 494.5,-333 335.5,-333 335.5,-333 329.5,-333 323.5,-327 323.5,-321 323.5,-321 323.5,-251 323.5,-251 323.5,-245 329.5,-239 335.5,-239"/>
<text text-anchor="middle" x="415" y="-317.8" font-family="Times,serif" font-size="14.00">RasbSec::PasswordsController</text>
<polyline fill="none" stroke="black" points="323.5,-310 506.5,-310 "/>
<polyline fill="none" stroke="black" points="323.5,-286 506.5,-286 "/>
<polyline fill="none" stroke="black" points="323.5,-262 506.5,-262 "/>
<text text-anchor="start" x="331.5" y="-246.8" font-family="Times,serif" font-size="14.00">_layout</text>
</g>
<!-- RasbSec::RegistrationsController -->
<g id="node10" class="node"><title>RasbSec::RegistrationsController</title>
<path fill="none" stroke="black" d="M-89.5,169C-89.5,169 83.5,169 83.5,169 89.5,169 95.5,163 95.5,157 95.5,157 95.5,-151 95.5,-151 95.5,-157 89.5,-163 83.5,-163 83.5,-163 -89.5,-163 -89.5,-163 -95.5,-163 -101.5,-157 -101.5,-151 -101.5,-151 -101.5,157 -101.5,157 -101.5,163 -95.5,169 -89.5,169"/>
<text text-anchor="middle" x="-3" y="-147.8" font-family="Times,serif" font-size="14.00">RasbSec::RegistrationsController</text>
<polyline fill="none" stroke="black" points="-101.5,-140 95.5,-140 "/>
<text text-anchor="start" x="-93.5" y="-124.8" font-family="Times,serif" font-size="14.00">cancel</text>
<text text-anchor="start" x="-93.5" y="-109.8" font-family="Times,serif" font-size="14.00">create</text>
<text text-anchor="start" x="-93.5" y="-94.8" font-family="Times,serif" font-size="14.00">destroy</text>
<text text-anchor="start" x="-93.5" y="-79.8" font-family="Times,serif" font-size="14.00">edit</text>
<text text-anchor="start" x="-93.5" y="-64.8" font-family="Times,serif" font-size="14.00">new</text>
<text text-anchor="start" x="-93.5" y="-49.8" font-family="Times,serif" font-size="14.00">update</text>
<polyline fill="none" stroke="black" points="-101.5,-42 95.5,-42 "/>
<text text-anchor="start" x="-93.5" y="-26.8" font-family="Times,serif" font-size="14.00">account_update_params</text>
<text text-anchor="start" x="-93.5" y="-11.8" font-family="Times,serif" font-size="14.00">after_inactive_sign_up_path_for</text>
<text text-anchor="start" x="-93.5" y="3.2" font-family="Times,serif" font-size="14.00">after_sign_up_path_for</text>
<text text-anchor="start" x="-93.5" y="18.2" font-family="Times,serif" font-size="14.00">after_update_path_for</text>
<text text-anchor="start" x="-93.5" y="33.2" font-family="Times,serif" font-size="14.00">authenticate_scope!</text>
<text text-anchor="start" x="-93.5" y="48.2" font-family="Times,serif" font-size="14.00">build_resource</text>
<text text-anchor="start" x="-93.5" y="63.2" font-family="Times,serif" font-size="14.00">configure_permitted_parameters</text>
<text text-anchor="start" x="-93.5" y="78.2" font-family="Times,serif" font-size="14.00">sign_up</text>
<text text-anchor="start" x="-93.5" y="93.2" font-family="Times,serif" font-size="14.00">sign_up_params</text>
<text text-anchor="start" x="-93.5" y="108.2" font-family="Times,serif" font-size="14.00">translation_scope</text>
<text text-anchor="start" x="-93.5" y="123.2" font-family="Times,serif" font-size="14.00">update_needs_confirmation?</text>
<text text-anchor="start" x="-93.5" y="138.2" font-family="Times,serif" font-size="14.00">update_resource</text>
<polyline fill="none" stroke="black" points="-101.5,146 95.5,146 "/>
<text text-anchor="start" x="-93.5" y="161.2" font-family="Times,serif" font-size="14.00">_layout</text>
</g>
<!-- RasbPiController -->
<g id="node11" class="node"><title>RasbPiController</title>
<path fill="none" stroke="black" d="M-362,-375C-362,-375 -276,-375 -276,-375 -270,-375 -264,-381 -264,-387 -264,-387 -264,-471 -264,-471 -264,-477 -270,-483 -276,-483 -276,-483 -362,-483 -362,-483 -368,-483 -374,-477 -374,-471 -374,-471 -374,-387 -374,-387 -374,-381 -368,-375 -362,-375"/>
<text text-anchor="middle" x="-319" y="-467.8" font-family="Times,serif" font-size="14.00">RasbPiController</text>
<polyline fill="none" stroke="black" points="-374,-460 -264,-460 "/>
<text text-anchor="start" x="-366" y="-444.8" font-family="Times,serif" font-size="14.00">all</text>
<text text-anchor="start" x="-366" y="-429.8" font-family="Times,serif" font-size="14.00">se</text>
<polyline fill="none" stroke="black" points="-374,-422 -264,-422 "/>
<polyline fill="none" stroke="black" points="-374,-398 -264,-398 "/>
<text text-anchor="start" x="-366" y="-382.8" font-family="Times,serif" font-size="14.00">_layout</text>
</g>
<!-- AjaxLieuController -->
<g id="node12" class="node"><title>AjaxLieuController</title>
<path fill="none" stroke="black" d="M352.5,135C352.5,135 451.5,135 451.5,135 457.5,135 463.5,129 463.5,123 463.5,123 463.5,39 463.5,39 463.5,33 457.5,27 451.5,27 451.5,27 352.5,27 352.5,27 346.5,27 340.5,33 340.5,39 340.5,39 340.5,123 340.5,123 340.5,129 346.5,135 352.5,135"/>
<text text-anchor="middle" x="402" y="42.2" font-family="Times,serif" font-size="14.00">AjaxLieuController</text>
<polyline fill="none" stroke="black" points="340.5,50 463.5,50 "/>
<text text-anchor="start" x="348.5" y="65.2" font-family="Times,serif" font-size="14.00">lieu</text>
<text text-anchor="start" x="348.5" y="80.2" font-family="Times,serif" font-size="14.00">meteo</text>
<polyline fill="none" stroke="black" points="340.5,88 463.5,88 "/>
<polyline fill="none" stroke="black" points="340.5,112 463.5,112 "/>
<text text-anchor="start" x="348.5" y="127.2" font-family="Times,serif" font-size="14.00">_layout</text>
</g>
<!-- MesuresController -->
<g id="node13" class="node"><title>MesuresController</title>
<path fill="none" stroke="black" d="M-242.5,84.5C-242.5,84.5 -147.5,84.5 -147.5,84.5 -141.5,84.5 -135.5,78.5 -135.5,72.5 -135.5,72.5 -135.5,-56.5 -135.5,-56.5 -135.5,-62.5 -141.5,-68.5 -147.5,-68.5 -147.5,-68.5 -242.5,-68.5 -242.5,-68.5 -248.5,-68.5 -254.5,-62.5 -254.5,-56.5 -254.5,-56.5 -254.5,72.5 -254.5,72.5 -254.5,78.5 -248.5,84.5 -242.5,84.5"/>
<text text-anchor="middle" x="-195" y="-53.3" font-family="Times,serif" font-size="14.00">MesuresController</text>
<polyline fill="none" stroke="black" points="-254.5,-45.5 -135.5,-45.5 "/>
<text text-anchor="start" x="-246.5" y="-30.3" font-family="Times,serif" font-size="14.00">completed_tasks</text>
<text text-anchor="start" x="-246.5" y="-15.3" font-family="Times,serif" font-size="14.00">generator</text>
<text text-anchor="start" x="-246.5" y="-0.3" font-family="Times,serif" font-size="14.00">index</text>
<text text-anchor="start" x="-246.5" y="14.7" font-family="Times,serif" font-size="14.00">myown</text>
<text text-anchor="start" x="-246.5" y="29.7" font-family="Times,serif" font-size="14.00">postH</text>
<polyline fill="none" stroke="black" points="-254.5,37.5 -135.5,37.5 "/>
<polyline fill="none" stroke="black" points="-254.5,61.5 -135.5,61.5 "/>
<text text-anchor="start" x="-246.5" y="76.7" font-family="Times,serif" font-size="14.00">_layout</text>
</g>
<!-- FollowController -->
<g id="node14" class="node"><title>FollowController</title>
<path fill="none" stroke="black" d="M199,-357.5C199,-357.5 285,-357.5 285,-357.5 291,-357.5 297,-363.5 297,-369.5 297,-369.5 297,-468.5 297,-468.5 297,-474.5 291,-480.5 285,-480.5 285,-480.5 199,-480.5 199,-480.5 193,-480.5 187,-474.5 187,-468.5 187,-468.5 187,-369.5 187,-369.5 187,-363.5 193,-357.5 199,-357.5"/>
<text text-anchor="middle" x="242" y="-465.3" font-family="Times,serif" font-size="14.00">FollowController</text>
<polyline fill="none" stroke="black" points="187,-457.5 297,-457.5 "/>
<text text-anchor="start" x="195" y="-442.3" font-family="Times,serif" font-size="14.00">foll</text>
<text text-anchor="start" x="195" y="-427.3" font-family="Times,serif" font-size="14.00">source</text>
<text text-anchor="start" x="195" y="-412.3" font-family="Times,serif" font-size="14.00">unfoll</text>
<polyline fill="none" stroke="black" points="187,-404.5 297,-404.5 "/>
<polyline fill="none" stroke="black" points="187,-380.5 297,-380.5 "/>
<text text-anchor="start" x="195" y="-365.3" font-family="Times,serif" font-size="14.00">_layout</text>
</g>
<!-- CreateUserController -->
<g id="node15" class="node"><title>CreateUserController</title>
<path fill="none" stroke="black" d="M-21.5,322.5C-21.5,322.5 87.5,322.5 87.5,322.5 93.5,322.5 99.5,316.5 99.5,310.5 99.5,310.5 99.5,211.5 99.5,211.5 99.5,205.5 93.5,199.5 87.5,199.5 87.5,199.5 -21.5,199.5 -21.5,199.5 -27.5,199.5 -33.5,205.5 -33.5,211.5 -33.5,211.5 -33.5,310.5 -33.5,310.5 -33.5,316.5 -27.5,322.5 -21.5,322.5"/>
<text text-anchor="middle" x="33" y="214.7" font-family="Times,serif" font-size="14.00">CreateUserController</text>
<polyline fill="none" stroke="black" points="-33.5,222.5 99.5,222.5 "/>
<text text-anchor="start" x="-25.5" y="237.7" font-family="Times,serif" font-size="14.00">create</text>
<text text-anchor="start" x="-25.5" y="252.7" font-family="Times,serif" font-size="14.00">new</text>
<polyline fill="none" stroke="black" points="-33.5,260.5 99.5,260.5 "/>
<polyline fill="none" stroke="black" points="-33.5,284.5 99.5,284.5 "/>
<text text-anchor="start" x="-25.5" y="299.7" font-family="Times,serif" font-size="14.00">_layout</text>
<text text-anchor="start" x="-25.5" y="314.7" font-family="Times,serif" font-size="14.00">user_params</text>
</g>
<!-- ApplicationController -->
<g id="node16" class="node"><title>ApplicationController</title>
<path fill="none" stroke="black" d="M148,407C148,407 260,407 260,407 266,407 272,401 272,395 272,395 272,325 272,325 272,319 266,313 260,313 260,313 148,313 148,313 142,313 136,319 136,325 136,325 136,395 136,395 136,401 142,407 148,407"/>
<text text-anchor="middle" x="204" y="328.2" font-family="Times,serif" font-size="14.00">ApplicationController</text>
<polyline fill="none" stroke="black" points="136,336 272,336 "/>
<polyline fill="none" stroke="black" points="136,360 272,360 "/>
<polyline fill="none" stroke="black" points="136,384 272,384 "/>
<text text-anchor="start" x="144" y="399.2" font-family="Times,serif" font-size="14.00">_layout</text>
</g>
<!-- MySpaceController -->
<g id="node17" class="node"><title>MySpaceController</title>
<path fill="none" stroke="black" d="M386,-375C386,-375 486,-375 486,-375 492,-375 498,-381 498,-387 498,-387 498,-471 498,-471 498,-477 492,-483 486,-483 486,-483 386,-483 386,-483 380,-483 374,-477 374,-471 374,-471 374,-387 374,-387 374,-381 380,-375 386,-375"/>
<text text-anchor="middle" x="436" y="-467.8" font-family="Times,serif" font-size="14.00">MySpaceController</text>
<polyline fill="none" stroke="black" points="374,-460 498,-460 "/>
<text text-anchor="start" x="382" y="-444.8" font-family="Times,serif" font-size="14.00">create</text>
<text text-anchor="start" x="382" y="-429.8" font-family="Times,serif" font-size="14.00">myown</text>
<polyline fill="none" stroke="black" points="374,-422 498,-422 "/>
<polyline fill="none" stroke="black" points="374,-398 498,-398 "/>
<text text-anchor="start" x="382" y="-382.8" font-family="Times,serif" font-size="14.00">_layout</text>
</g>
<!-- AjaxUserController -->
<g id="node18" class="node"><title>AjaxUserController</title>
<path fill="none" stroke="black" d="M148.5,-103C148.5,-103 281.5,-103 281.5,-103 287.5,-103 293.5,-109 293.5,-115 293.5,-115 293.5,-319 293.5,-319 293.5,-325 287.5,-331 281.5,-331 281.5,-331 148.5,-331 148.5,-331 142.5,-331 136.5,-325 136.5,-319 136.5,-319 136.5,-115 136.5,-115 136.5,-109 142.5,-103 148.5,-103"/>
<text text-anchor="middle" x="215" y="-315.8" font-family="Times,serif" font-size="14.00">AjaxUserController</text>
<polyline fill="none" stroke="black" points="136.5,-308 293.5,-308 "/>
<text text-anchor="start" x="144.5" y="-292.8" font-family="Times,serif" font-size="14.00">autocomplete_user_email</text>
<text text-anchor="start" x="144.5" y="-277.8" font-family="Times,serif" font-size="14.00">changeAutre</text>
<text text-anchor="start" x="144.5" y="-262.8" font-family="Times,serif" font-size="14.00">changeImg</text>
<text text-anchor="start" x="144.5" y="-247.8" font-family="Times,serif" font-size="14.00">cropImg</text>
<text text-anchor="start" x="144.5" y="-232.8" font-family="Times,serif" font-size="14.00">get_autocomplete_items</text>
<text text-anchor="start" x="144.5" y="-217.8" font-family="Times,serif" font-size="14.00">get_autocomplete_order</text>
<text text-anchor="start" x="144.5" y="-202.8" font-family="Times,serif" font-size="14.00">get_prefix</text>
<text text-anchor="start" x="144.5" y="-187.8" font-family="Times,serif" font-size="14.00">update</text>
<text text-anchor="start" x="144.5" y="-172.8" font-family="Times,serif" font-size="14.00">updateParams</text>
<text text-anchor="start" x="144.5" y="-157.8" font-family="Times,serif" font-size="14.00">updateRasb</text>
<polyline fill="none" stroke="black" points="136.5,-150 293.5,-150 "/>
<polyline fill="none" stroke="black" points="136.5,-126 293.5,-126 "/>
<text text-anchor="start" x="144.5" y="-110.8" font-family="Times,serif" font-size="14.00">_layout</text>
</g>
<!-- LieuController -->
<g id="node19" class="node"><title>LieuController</title>
<path fill="none" stroke="black" d="M-379.5,33C-379.5,33 -306.5,33 -306.5,33 -300.5,33 -294.5,27 -294.5,21 -294.5,21 -294.5,-49 -294.5,-49 -294.5,-55 -300.5,-61 -306.5,-61 -306.5,-61 -379.5,-61 -379.5,-61 -385.5,-61 -391.5,-55 -391.5,-49 -391.5,-49 -391.5,21 -391.5,21 -391.5,27 -385.5,33 -379.5,33"/>
<text text-anchor="middle" x="-343" y="-45.8" font-family="Times,serif" font-size="14.00">LieuController</text>
<polyline fill="none" stroke="black" points="-391.5,-38 -294.5,-38 "/>
<polyline fill="none" stroke="black" points="-391.5,-14 -294.5,-14 "/>
<polyline fill="none" stroke="black" points="-391.5,10 -294.5,10 "/>
<text text-anchor="start" x="-383.5" y="25.2" font-family="Times,serif" font-size="14.00">_layout</text>
</g>
</g>
</svg>
