<?xml version="1.0" encoding="UTF-8" standalone="no"?>
<!DOCTYPE svg PUBLIC "-//W3C//DTD SVG 1.1//EN"
 "http://www.w3.org/Graphics/SVG/1.1/DTD/svg11.dtd">
<!-- Generated by graphviz version 2.38.0 (20140413.2041)
 -->
<!-- Title: models_diagram Pages: 1 -->
<svg width="466pt" height="302pt"
 viewBox="0.00 0.00 466.34 302.00" xmlns="http://www.w3.org/2000/svg" xmlns:xlink="http://www.w3.org/1999/xlink">
<g id="graph0" class="graph" transform="scale(1 1) rotate(0) translate(4 298)">
<title>models_diagram</title>
<polygon fill="none" stroke="none" points="-4,4 -4,-298 462.343,-298 462.343,4 -4,4"/>
<!-- _diagram_info -->
<g id="node1" class="node"><title>_diagram_info</title>
<text text-anchor="start" x="8" y="-279.6" font-family="Times,serif" font-size="13.00">Models diagram</text>
<text text-anchor="start" x="8" y="-265.6" font-family="Times,serif" font-size="13.00">Date: Mar 11 2017 &#45; 17:51</text>
<text text-anchor="start" x="8" y="-251.6" font-family="Times,serif" font-size="13.00">Migration version: 20170309014941</text>
<text text-anchor="start" x="8" y="-237.6" font-family="Times,serif" font-size="13.00">Generated by RailRoady 1.5.2</text>
<text text-anchor="start" x="8" y="-223.6" font-family="Times,serif" font-size="13.00">http://railroady.prestonlee.com</text>
</g>
<!-- RasbSec -->
<g id="node2" class="node"><title>RasbSec</title>
<ellipse fill="none" stroke="black" cx="205" cy="-90" rx="40.8928" ry="18"/>
<text text-anchor="middle" x="205" y="-86.3" font-family="Times,serif" font-size="14.00">RasbSec</text>
</g>
<!-- Mesure -->
<g id="node6" class="node"><title>Mesure</title>
<ellipse fill="none" stroke="black" cx="274" cy="-18" rx="37.8943" ry="18"/>
<text text-anchor="middle" x="274" y="-14.3" font-family="Times,serif" font-size="14.00">Mesure</text>
</g>
<!-- RasbSec&#45;&gt;Mesure -->
<g id="edge1" class="edge"><title>RasbSec&#45;&gt;Mesure</title>
<path fill="none" stroke="#a2b99e" d="M226.494,-67.1941C234.242,-59.3342 243.015,-50.4344 250.894,-42.4407"/>
<ellipse fill="none" stroke="#a2b99e" cx="223.465" cy="-70.2672" rx="4.00002" ry="4.00002"/>
<polygon fill="#a2b99e" stroke="#a2b99e" points="251.385,-41.943 261.61,-37.9802 254.895,-38.3821 258.405,-34.8212 258.405,-34.8212 258.405,-34.8212 254.895,-38.3821 255.2,-31.6622 251.385,-41.943 251.385,-41.943"/>
</g>
<!-- ApplicationRecord -->
<g id="node3" class="node"><title>ApplicationRecord</title>
<ellipse fill="none" stroke="black" cx="381" cy="-255" rx="77.1866" ry="18"/>
<text text-anchor="middle" x="381" y="-251.3" font-family="Times,serif" font-size="14.00">ApplicationRecord</text>
</g>
<!-- Lieu -->
<g id="node4" class="node"><title>Lieu</title>
<ellipse fill="none" stroke="black" cx="259" cy="-255" rx="27" ry="18"/>
<text text-anchor="middle" x="259" y="-251.3" font-family="Times,serif" font-size="14.00">Lieu</text>
</g>
<!-- Lieu&#45;&gt;RasbSec -->
<g id="edge3" class="edge"><title>Lieu&#45;&gt;RasbSec</title>
<path fill="none" stroke="#b6eb23" d="M245.736,-230.633C238.133,-216.383 228.948,-197.585 223,-180 216.15,-159.748 211.506,-135.975 208.653,-118.096"/>
<ellipse fill="none" stroke="#b6eb23" cx="247.855" cy="-234.53" rx="4.00002" ry="4.00002"/>
<polygon fill="#b6eb23" stroke="#b6eb23" points="208.632,-117.954 211.591,-107.395 207.886,-113.01 207.141,-108.066 207.141,-108.066 207.141,-108.066 207.886,-113.01 202.691,-108.737 208.632,-117.954 208.632,-117.954"/>
</g>
<!-- User -->
<g id="node5" class="node"><title>User</title>
<ellipse fill="none" stroke="black" cx="259" cy="-162" rx="27.0966" ry="18"/>
<text text-anchor="middle" x="259" y="-158.3" font-family="Times,serif" font-size="14.00">User</text>
</g>
<!-- Lieu&#45;&gt;User -->
<g id="edge4" class="edge"><title>Lieu&#45;&gt;User</title>
<path fill="none" stroke="#70342d" d="M259,-226.549C259,-215.083 259,-201.792 259,-190.339"/>
<polygon fill="#70342d" stroke="#70342d" points="259,-226.884 254.5,-236.884 259,-231.884 259,-236.884 259,-236.884 259,-236.884 259,-231.884 263.5,-236.884 259,-226.884 259,-226.884"/>
<polygon fill="#70342d" stroke="#70342d" points="259,-190.04 263.5,-180.04 259,-185.04 259,-180.04 259,-180.04 259,-180.04 259,-185.04 254.5,-180.04 259,-190.04 259,-190.04"/>
</g>
<!-- Lieu&#45;&gt;Mesure -->
<g id="edge2" class="edge"><title>Lieu&#45;&gt;Mesure</title>
<path fill="none" stroke="#b2dfef" d="M273.336,-231.391C281.451,-217.229 290.795,-198.258 295,-180 305.733,-133.402 293.02,-77.8631 283.221,-45.6951"/>
<ellipse fill="none" stroke="#b2dfef" cx="271.273" cy="-234.885" rx="4.00002" ry="4.00002"/>
<polygon fill="#b2dfef" stroke="#b2dfef" points="283.205,-45.6433 284.464,-34.75 281.69,-40.8782 280.176,-36.1131 280.176,-36.1131 280.176,-36.1131 281.69,-40.8782 275.887,-37.4763 283.205,-45.6433 283.205,-45.6433"/>
</g>
<!-- User&#45;&gt;RasbSec -->
<g id="edge6" class="edge"><title>User&#45;&gt;RasbSec</title>
<path fill="none" stroke="#d75875" d="M242.065,-139.047C236.279,-131.547 229.773,-123.114 223.846,-115.43"/>
<ellipse fill="none" stroke="#d75875" cx="244.572" cy="-142.298" rx="4.00002" ry="4.00002"/>
<polygon fill="#d75875" stroke="#d75875" points="223.811,-115.385 221.266,-104.719 220.757,-111.426 217.703,-107.467 217.703,-107.467 217.703,-107.467 220.757,-111.426 214.14,-110.216 223.811,-115.385 223.811,-115.385"/>
</g>
<!-- User&#45;&gt;Mesure -->
<g id="edge5" class="edge"><title>User&#45;&gt;Mesure</title>
<path fill="none" stroke="#3d5302" d="M261.687,-135.558C264.34,-110.444 268.384,-72.164 271.106,-46.3932"/>
<ellipse fill="none" stroke="#3d5302" cx="261.23" cy="-139.894" rx="4" ry="4"/>
<polygon fill="#3d5302" stroke="#3d5302" points="271.134,-46.1339 276.659,-36.662 271.659,-41.1616 272.184,-36.1893 272.184,-36.1893 272.184,-36.1893 271.659,-41.1616 267.709,-35.7165 271.134,-46.1339 271.134,-46.1339"/>
</g>
</g>
</svg>
