<?xml version="1.0" encoding="UTF-8" standalone="no"?>
<!DOCTYPE svg PUBLIC "-//W3C//DTD SVG 1.1//EN"
 "http://www.w3.org/Graphics/SVG/1.1/DTD/svg11.dtd">
<!-- Generated by graphviz version 2.38.0 (20140413.2041)
 -->
<!-- Title: models_diagram Pages: 1 -->
<svg width="696pt" height="1069pt"
 viewBox="0.00 0.00 696.34 1069.00" xmlns="http://www.w3.org/2000/svg" xmlns:xlink="http://www.w3.org/1999/xlink">
<g id="graph0" class="graph" transform="scale(1 1) rotate(0) translate(4 1065)">
<title>models_diagram</title>
<polygon fill="none" stroke="none" points="-4,4 -4,-1065 692.343,-1065 692.343,4 -4,4"/>
<!-- _diagram_info -->
<g id="node1" class="node"><title>_diagram_info</title>
<text text-anchor="start" x="8" y="-1002.1" font-family="Times,serif" font-size="13.00">Models diagram</text>
<text text-anchor="start" x="8" y="-988.1" font-family="Times,serif" font-size="13.00">Date: Mar 11 2017 &#45; 17:51</text>
<text text-anchor="start" x="8" y="-974.1" font-family="Times,serif" font-size="13.00">Migration version: 20170309014941</text>
<text text-anchor="start" x="8" y="-960.1" font-family="Times,serif" font-size="13.00">Generated by RailRoady 1.5.2</text>
<text text-anchor="start" x="8" y="-946.1" font-family="Times,serif" font-size="13.00">http://railroady.prestonlee.com</text>
</g>
<!-- RasbSec -->
<g id="node2" class="node"><title>RasbSec</title>
<path fill="none" stroke="black" d="M127.5,-203.5C127.5,-203.5 406.5,-203.5 406.5,-203.5 412.5,-203.5 418.5,-209.5 418.5,-215.5 418.5,-215.5 418.5,-417.5 418.5,-417.5 418.5,-423.5 412.5,-429.5 406.5,-429.5 406.5,-429.5 127.5,-429.5 127.5,-429.5 121.5,-429.5 115.5,-423.5 115.5,-417.5 115.5,-417.5 115.5,-215.5 115.5,-215.5 115.5,-209.5 121.5,-203.5 127.5,-203.5"/>
<text text-anchor="middle" x="267" y="-414.3" font-family="Times,serif" font-size="14.00">RasbSec</text>
<polyline fill="none" stroke="black" points="115.5,-406.5 418.5,-406.5 "/>
<text text-anchor="start" x="123.5" y="-391.3" font-family="Times,serif" font-size="14.00">id :integer</text>
<text text-anchor="start" x="123.5" y="-376.3" font-family="Times,serif" font-size="14.00">login :character varying</text>
<text text-anchor="start" x="123.5" y="-361.3" font-family="Times,serif" font-size="14.00">encrypted_password :character varying</text>
<text text-anchor="start" x="123.5" y="-346.3" font-family="Times,serif" font-size="14.00">remember_created_at :timestamp without time zone</text>
<text text-anchor="start" x="123.5" y="-331.3" font-family="Times,serif" font-size="14.00">sign_in_count :integer</text>
<text text-anchor="start" x="123.5" y="-316.3" font-family="Times,serif" font-size="14.00">current_sign_in_at :timestamp without time zone</text>
<text text-anchor="start" x="123.5" y="-301.3" font-family="Times,serif" font-size="14.00">last_sign_in_at :timestamp without time zone</text>
<text text-anchor="start" x="123.5" y="-286.3" font-family="Times,serif" font-size="14.00">current_sign_in_ip :character varying</text>
<text text-anchor="start" x="123.5" y="-271.3" font-family="Times,serif" font-size="14.00">last_sign_in_ip :character varying</text>
<text text-anchor="start" x="123.5" y="-256.3" font-family="Times,serif" font-size="14.00">created_at :timestamp without time zone</text>
<text text-anchor="start" x="123.5" y="-241.3" font-family="Times,serif" font-size="14.00">updated_at :timestamp without time zone</text>
<text text-anchor="start" x="123.5" y="-226.3" font-family="Times,serif" font-size="14.00">user_id :integer</text>
<text text-anchor="start" x="123.5" y="-211.3" font-family="Times,serif" font-size="14.00">lieu_id :integer</text>
</g>
<!-- Mesure -->
<g id="node6" class="node"><title>Mesure</title>
<path fill="none" stroke="black" d="M365,-0.5C365,-0.5 529,-0.5 529,-0.5 535,-0.5 541,-6.5 541,-12.5 541,-12.5 541,-154.5 541,-154.5 541,-160.5 535,-166.5 529,-166.5 529,-166.5 365,-166.5 365,-166.5 359,-166.5 353,-160.5 353,-154.5 353,-154.5 353,-12.5 353,-12.5 353,-6.5 359,-0.5 365,-0.5"/>
<text text-anchor="middle" x="447" y="-151.3" font-family="Times,serif" font-size="14.00">Mesure</text>
<polyline fill="none" stroke="black" points="353,-143.5 541,-143.5 "/>
<text text-anchor="start" x="361" y="-128.3" font-family="Times,serif" font-size="14.00">id :integer</text>
<text text-anchor="start" x="361" y="-113.3" font-family="Times,serif" font-size="14.00">t :timestamp without time zone</text>
<text text-anchor="start" x="361" y="-98.3" font-family="Times,serif" font-size="14.00">vitessevent :integer</text>
<text text-anchor="start" x="361" y="-83.3" font-family="Times,serif" font-size="14.00">lieu_id :integer</text>
<text text-anchor="start" x="361" y="-68.3" font-family="Times,serif" font-size="14.00">temperature :double precision</text>
<text text-anchor="start" x="361" y="-53.3" font-family="Times,serif" font-size="14.00">rasb_id :integer</text>
<text text-anchor="start" x="361" y="-38.3" font-family="Times,serif" font-size="14.00">rasb_sec_id :integer</text>
<text text-anchor="start" x="361" y="-23.3" font-family="Times,serif" font-size="14.00">humidite :double precision</text>
<text text-anchor="start" x="361" y="-8.3" font-family="Times,serif" font-size="14.00">pression :double precision</text>
</g>
<!-- RasbSec&#45;&gt;Mesure -->
<g id="edge1" class="edge"><title>RasbSec&#45;&gt;Mesure</title>
<path fill="none" stroke="#0247a4" d="M359.353,-196.98C365.237,-189.43 371.107,-181.896 376.863,-174.509"/>
<ellipse fill="none" stroke="#0247a4" cx="356.822" cy="-200.228" rx="4.00002" ry="4.00002"/>
<polygon fill="#0247a4" stroke="#0247a4" points="376.913,-174.445 386.609,-169.323 379.986,-170.501 383.06,-166.557 383.06,-166.557 383.06,-166.557 379.986,-170.501 379.51,-163.791 376.913,-174.445 376.913,-174.445"/>
</g>
<!-- ApplicationRecord -->
<g id="node3" class="node"><title>ApplicationRecord</title>
<ellipse fill="none" stroke="black" cx="611" cy="-977.5" rx="77.1866" ry="18"/>
<text text-anchor="middle" x="611" y="-973.8" font-family="Times,serif" font-size="14.00">ApplicationRecord</text>
</g>
<!-- Lieu -->
<g id="node4" class="node"><title>Lieu</title>
<path fill="none" stroke="black" d="M244,-894.5C244,-894.5 504,-894.5 504,-894.5 510,-894.5 516,-900.5 516,-906.5 516,-906.5 516,-1048.5 516,-1048.5 516,-1054.5 510,-1060.5 504,-1060.5 504,-1060.5 244,-1060.5 244,-1060.5 238,-1060.5 232,-1054.5 232,-1048.5 232,-1048.5 232,-906.5 232,-906.5 232,-900.5 238,-894.5 244,-894.5"/>
<text text-anchor="middle" x="374" y="-1045.3" font-family="Times,serif" font-size="14.00">Lieu</text>
<polyline fill="none" stroke="black" points="232,-1037.5 516,-1037.5 "/>
<text text-anchor="start" x="240" y="-1022.3" font-family="Times,serif" font-size="14.00">id :integer</text>
<text text-anchor="start" x="240" y="-1007.3" font-family="Times,serif" font-size="14.00">nom :character varying</text>
<text text-anchor="start" x="240" y="-992.3" font-family="Times,serif" font-size="14.00">created_at :timestamp without time zone</text>
<text text-anchor="start" x="240" y="-977.3" font-family="Times,serif" font-size="14.00">updated_at :timestamp without time zone</text>
<text text-anchor="start" x="240" y="-962.3" font-family="Times,serif" font-size="14.00">latitude :double precision</text>
<text text-anchor="start" x="240" y="-947.3" font-family="Times,serif" font-size="14.00">longitude :double precision</text>
<text text-anchor="start" x="240" y="-932.3" font-family="Times,serif" font-size="14.00">address :character varying</text>
<text text-anchor="start" x="240" y="-917.3" font-family="Times,serif" font-size="14.00">openW :integer</text>
<text text-anchor="start" x="240" y="-902.3" font-family="Times,serif" font-size="14.00">lastMesureUpdate :timestamp without time zone</text>
</g>
<!-- Lieu&#45;&gt;RasbSec -->
<g id="edge3" class="edge"><title>Lieu&#45;&gt;RasbSec</title>
<path fill="none" stroke="#c7eb4f" d="M228.757,-888.232C220.671,-878.92 213.584,-868.847 208,-858 140.342,-726.574 177.535,-553.688 216.62,-439.243"/>
<ellipse fill="none" stroke="#c7eb4f" cx="231.521" cy="-891.279" rx="4.00002" ry="4.00002"/>
<polygon fill="#c7eb4f" stroke="#c7eb4f" points="216.641,-439.18 224.17,-431.206 218.28,-434.456 219.918,-429.732 219.918,-429.732 219.918,-429.732 218.28,-434.456 215.666,-428.258 216.641,-439.18 216.641,-439.18"/>
</g>
<!-- User -->
<g id="node5" class="node"><title>User</title>
<path fill="none" stroke="black" d="M229.5,-466.5C229.5,-466.5 518.5,-466.5 518.5,-466.5 524.5,-466.5 530.5,-472.5 530.5,-478.5 530.5,-478.5 530.5,-845.5 530.5,-845.5 530.5,-851.5 524.5,-857.5 518.5,-857.5 518.5,-857.5 229.5,-857.5 229.5,-857.5 223.5,-857.5 217.5,-851.5 217.5,-845.5 217.5,-845.5 217.5,-478.5 217.5,-478.5 217.5,-472.5 223.5,-466.5 229.5,-466.5"/>
<text text-anchor="middle" x="374" y="-842.3" font-family="Times,serif" font-size="14.00">User</text>
<polyline fill="none" stroke="black" points="217.5,-834.5 530.5,-834.5 "/>
<text text-anchor="start" x="225.5" y="-819.3" font-family="Times,serif" font-size="14.00">id :integer</text>
<text text-anchor="start" x="225.5" y="-804.3" font-family="Times,serif" font-size="14.00">email :character varying</text>
<text text-anchor="start" x="225.5" y="-789.3" font-family="Times,serif" font-size="14.00">encrypted_password :character varying</text>
<text text-anchor="start" x="225.5" y="-774.3" font-family="Times,serif" font-size="14.00">reset_password_token :character varying</text>
<text text-anchor="start" x="225.5" y="-759.3" font-family="Times,serif" font-size="14.00">reset_password_sent_at :timestamp without time zone</text>
<text text-anchor="start" x="225.5" y="-744.3" font-family="Times,serif" font-size="14.00">remember_created_at :timestamp without time zone</text>
<text text-anchor="start" x="225.5" y="-729.3" font-family="Times,serif" font-size="14.00">sign_in_count :integer</text>
<text text-anchor="start" x="225.5" y="-714.3" font-family="Times,serif" font-size="14.00">current_sign_in_at :timestamp without time zone</text>
<text text-anchor="start" x="225.5" y="-699.3" font-family="Times,serif" font-size="14.00">last_sign_in_at :timestamp without time zone</text>
<text text-anchor="start" x="225.5" y="-684.3" font-family="Times,serif" font-size="14.00">current_sign_in_ip :character varying</text>
<text text-anchor="start" x="225.5" y="-669.3" font-family="Times,serif" font-size="14.00">last_sign_in_ip :character varying</text>
<text text-anchor="start" x="225.5" y="-654.3" font-family="Times,serif" font-size="14.00">created_at :timestamp without time zone</text>
<text text-anchor="start" x="225.5" y="-639.3" font-family="Times,serif" font-size="14.00">updated_at :timestamp without time zone</text>
<text text-anchor="start" x="225.5" y="-624.3" font-family="Times,serif" font-size="14.00">isAdmin :boolean</text>
<text text-anchor="start" x="225.5" y="-609.3" font-family="Times,serif" font-size="14.00">avatar_file_name :character varying</text>
<text text-anchor="start" x="225.5" y="-594.3" font-family="Times,serif" font-size="14.00">avatar_content_type :character varying</text>
<text text-anchor="start" x="225.5" y="-579.3" font-family="Times,serif" font-size="14.00">avatar_file_size :integer</text>
<text text-anchor="start" x="225.5" y="-564.3" font-family="Times,serif" font-size="14.00">avatar_updated_at :timestamp without time zone</text>
<text text-anchor="start" x="225.5" y="-549.3" font-family="Times,serif" font-size="14.00">nom :character varying</text>
<text text-anchor="start" x="225.5" y="-534.3" font-family="Times,serif" font-size="14.00">prenom :character varying</text>
<text text-anchor="start" x="225.5" y="-519.3" font-family="Times,serif" font-size="14.00">username :character varying</text>
<text text-anchor="start" x="225.5" y="-504.3" font-family="Times,serif" font-size="14.00">affichage :integer</text>
<text text-anchor="start" x="225.5" y="-489.3" font-family="Times,serif" font-size="14.00">affichageMail :boolean</text>
<text text-anchor="start" x="225.5" y="-474.3" font-family="Times,serif" font-size="14.00">affichageNomPrenom :boolean</text>
</g>
<!-- Lieu&#45;&gt;User -->
<g id="edge4" class="edge"><title>Lieu&#45;&gt;User</title>
<path fill="none" stroke="#8a7234" d="M374,-883.894C374,-878.566 374,-873.119 374,-867.584"/>
<polygon fill="#8a7234" stroke="#8a7234" points="374,-884.132 369.5,-894.132 374,-889.132 374,-894.132 374,-894.132 374,-894.132 374,-889.132 378.5,-894.132 374,-884.132 374,-884.132"/>
<polygon fill="#8a7234" stroke="#8a7234" points="374,-867.532 378.5,-857.532 374,-862.532 374,-857.532 374,-857.532 374,-857.532 374,-862.532 369.5,-857.532 374,-867.532 374,-867.532"/>
</g>
<!-- Lieu&#45;&gt;Mesure -->
<g id="edge2" class="edge"><title>Lieu&#45;&gt;Mesure</title>
<path fill="none" stroke="#37232f" d="M518.377,-888.153C526.412,-878.859 533.454,-868.811 539,-858 653.874,-634.069 553.109,-326.939 489.521,-175.919"/>
<ellipse fill="none" stroke="#37232f" cx="515.641" cy="-891.183" rx="4.00002" ry="4.00002"/>
<polygon fill="#37232f" stroke="#37232f" points="489.489,-175.844 489.719,-164.881 487.533,-171.242 485.578,-166.641 485.578,-166.641 485.578,-166.641 487.533,-171.242 481.436,-168.401 489.489,-175.844 489.489,-175.844"/>
</g>
<!-- User&#45;&gt;RasbSec -->
<g id="edge6" class="edge"><title>User&#45;&gt;RasbSec</title>
<path fill="none" stroke="#cf29f9" d="M310.869,-458.333C308.88,-451.945 306.908,-445.617 304.967,-439.384"/>
<ellipse fill="none" stroke="#cf29f9" cx="312.12" cy="-462.347" rx="4.00001" ry="4.00001"/>
<polygon fill="#cf29f9" stroke="#cf29f9" points="304.916,-439.221 306.238,-428.336 303.429,-434.448 301.942,-429.674 301.942,-429.674 301.942,-429.674 303.429,-434.448 297.646,-431.012 304.916,-439.221 304.916,-439.221"/>
</g>
<!-- User&#45;&gt;Mesure -->
<g id="edge5" class="edge"><title>User&#45;&gt;Mesure</title>
<path fill="none" stroke="#0730a1" d="M422.505,-458.355C424.159,-448.796 425.672,-439.308 427,-430 439.17,-344.677 443.981,-246.495 445.859,-176.654"/>
<ellipse fill="none" stroke="#0730a1" cx="421.779" cy="-462.462" rx="4.00001" ry="4.00001"/>
<polygon fill="#0730a1" stroke="#0730a1" points="445.861,-176.556 450.614,-166.674 445.988,-171.558 446.115,-166.56 446.115,-166.56 446.115,-166.56 445.988,-171.558 441.617,-166.445 445.861,-176.556 445.861,-176.556"/>
</g>
</g>
</svg>
