<?xml version="1.0" encoding="UTF-8" standalone="no"?>
<!DOCTYPE svg PUBLIC "-//W3C//DTD SVG 1.1//EN"
 "http://www.w3.org/Graphics/SVG/1.1/DTD/svg11.dtd">
<!-- Generated by graphviz version 2.38.0 (20140413.2041)
 -->
<!-- Title: models_diagram Pages: 1 -->
<svg width="582pt" height="1084pt"
 viewBox="0.00 0.00 582.34 1084.00" xmlns="http://www.w3.org/2000/svg" xmlns:xlink="http://www.w3.org/1999/xlink">
<g id="graph0" class="graph" transform="scale(1 1) rotate(0) translate(4 1080)">
<title>models_diagram</title>
<polygon fill="none" stroke="none" points="-4,4 -4,-1080 578.343,-1080 578.343,4 -4,4"/>
<!-- _diagram_info -->
<g id="node1" class="node"><title>_diagram_info</title>
<text text-anchor="start" x="8" y="-1017.1" font-family="Times,serif" font-size="13.00">Models diagram</text>
<text text-anchor="start" x="8" y="-1003.1" font-family="Times,serif" font-size="13.00">Date: Mar 09 2017 &#45; 02:40</text>
<text text-anchor="start" x="8" y="-989.1" font-family="Times,serif" font-size="13.00">Migration version: 20170309013516</text>
<text text-anchor="start" x="8" y="-975.1" font-family="Times,serif" font-size="13.00">Generated by RailRoady 1.5.2</text>
<text text-anchor="start" x="8" y="-961.1" font-family="Times,serif" font-size="13.00">http://railroady.prestonlee.com</text>
</g>
<!-- RasbSec -->
<g id="node2" class="node"><title>RasbSec</title>
<path fill="none" stroke="black" d="M143.5,-218.5C143.5,-218.5 324.5,-218.5 324.5,-218.5 330.5,-218.5 336.5,-224.5 336.5,-230.5 336.5,-230.5 336.5,-432.5 336.5,-432.5 336.5,-438.5 330.5,-444.5 324.5,-444.5 324.5,-444.5 143.5,-444.5 143.5,-444.5 137.5,-444.5 131.5,-438.5 131.5,-432.5 131.5,-432.5 131.5,-230.5 131.5,-230.5 131.5,-224.5 137.5,-218.5 143.5,-218.5"/>
<text text-anchor="middle" x="234" y="-429.3" font-family="Times,serif" font-size="14.00">RasbSec</text>
<polyline fill="none" stroke="black" points="131.5,-421.5 336.5,-421.5 "/>
<text text-anchor="start" x="139.5" y="-406.3" font-family="Times,serif" font-size="14.00">id :int(11)</text>
<text text-anchor="start" x="139.5" y="-391.3" font-family="Times,serif" font-size="14.00">login :varchar(255)</text>
<text text-anchor="start" x="139.5" y="-376.3" font-family="Times,serif" font-size="14.00">encrypted_password :varchar(255)</text>
<text text-anchor="start" x="139.5" y="-361.3" font-family="Times,serif" font-size="14.00">remember_created_at :datetime</text>
<text text-anchor="start" x="139.5" y="-346.3" font-family="Times,serif" font-size="14.00">sign_in_count :int(11)</text>
<text text-anchor="start" x="139.5" y="-331.3" font-family="Times,serif" font-size="14.00">current_sign_in_at :datetime</text>
<text text-anchor="start" x="139.5" y="-316.3" font-family="Times,serif" font-size="14.00">last_sign_in_at :datetime</text>
<text text-anchor="start" x="139.5" y="-301.3" font-family="Times,serif" font-size="14.00">current_sign_in_ip :varchar(255)</text>
<text text-anchor="start" x="139.5" y="-286.3" font-family="Times,serif" font-size="14.00">last_sign_in_ip :varchar(255)</text>
<text text-anchor="start" x="139.5" y="-271.3" font-family="Times,serif" font-size="14.00">created_at :datetime</text>
<text text-anchor="start" x="139.5" y="-256.3" font-family="Times,serif" font-size="14.00">updated_at :datetime</text>
<text text-anchor="start" x="139.5" y="-241.3" font-family="Times,serif" font-size="14.00">user_id :int(11)</text>
<text text-anchor="start" x="139.5" y="-226.3" font-family="Times,serif" font-size="14.00">lieu_id :int(11)</text>
</g>
<!-- Mesure -->
<g id="node6" class="node"><title>Mesure</title>
<path fill="none" stroke="black" d="M314.5,-0.5C314.5,-0.5 415.5,-0.5 415.5,-0.5 421.5,-0.5 427.5,-6.5 427.5,-12.5 427.5,-12.5 427.5,-169.5 427.5,-169.5 427.5,-175.5 421.5,-181.5 415.5,-181.5 415.5,-181.5 314.5,-181.5 314.5,-181.5 308.5,-181.5 302.5,-175.5 302.5,-169.5 302.5,-169.5 302.5,-12.5 302.5,-12.5 302.5,-6.5 308.5,-0.5 314.5,-0.5"/>
<text text-anchor="middle" x="365" y="-166.3" font-family="Times,serif" font-size="14.00">Mesure</text>
<polyline fill="none" stroke="black" points="302.5,-158.5 427.5,-158.5 "/>
<text text-anchor="start" x="310.5" y="-143.3" font-family="Times,serif" font-size="14.00">id :int(11)</text>
<text text-anchor="start" x="310.5" y="-128.3" font-family="Times,serif" font-size="14.00">t :datetime</text>
<text text-anchor="start" x="310.5" y="-113.3" font-family="Times,serif" font-size="14.00">vitessevent :int(11)</text>
<text text-anchor="start" x="310.5" y="-98.3" font-family="Times,serif" font-size="14.00">lieu_id :int(11)</text>
<text text-anchor="start" x="310.5" y="-83.3" font-family="Times,serif" font-size="14.00">temperature :float</text>
<text text-anchor="start" x="310.5" y="-68.3" font-family="Times,serif" font-size="14.00">rasb_id :int(11)</text>
<text text-anchor="start" x="310.5" y="-53.3" font-family="Times,serif" font-size="14.00">user_id :int(11)</text>
<text text-anchor="start" x="310.5" y="-38.3" font-family="Times,serif" font-size="14.00">rasb_sec_id :int(11)</text>
<text text-anchor="start" x="310.5" y="-23.3" font-family="Times,serif" font-size="14.00">humidite :float</text>
<text text-anchor="start" x="310.5" y="-8.3" font-family="Times,serif" font-size="14.00">pression :float</text>
</g>
<!-- RasbSec&#45;&gt;Mesure -->
<g id="edge1" class="edge"><title>RasbSec&#45;&gt;Mesure</title>
<path fill="none" stroke="#8f13b3" d="M299.595,-211.076C303.309,-204.315 307.022,-197.555 310.687,-190.882"/>
<ellipse fill="none" stroke="#8f13b3" cx="297.59" cy="-214.728" rx="4.00002" ry="4.00002"/>
<polygon fill="#8f13b3" stroke="#8f13b3" points="310.837,-190.61 319.595,-184.012 313.244,-186.228 315.651,-181.845 315.651,-181.845 315.651,-181.845 313.244,-186.228 311.707,-179.679 310.837,-190.61 310.837,-190.61"/>
</g>
<!-- ApplicationRecord -->
<g id="node3" class="node"><title>ApplicationRecord</title>
<ellipse fill="none" stroke="black" cx="497" cy="-992.5" rx="77.1866" ry="18"/>
<text text-anchor="middle" x="497" y="-988.8" font-family="Times,serif" font-size="14.00">ApplicationRecord</text>
</g>
<!-- Lieu -->
<g id="node4" class="node"><title>Lieu</title>
<path fill="none" stroke="black" d="M244,-909.5C244,-909.5 390,-909.5 390,-909.5 396,-909.5 402,-915.5 402,-921.5 402,-921.5 402,-1063.5 402,-1063.5 402,-1069.5 396,-1075.5 390,-1075.5 390,-1075.5 244,-1075.5 244,-1075.5 238,-1075.5 232,-1069.5 232,-1063.5 232,-1063.5 232,-921.5 232,-921.5 232,-915.5 238,-909.5 244,-909.5"/>
<text text-anchor="middle" x="317" y="-1060.3" font-family="Times,serif" font-size="14.00">Lieu</text>
<polyline fill="none" stroke="black" points="232,-1052.5 402,-1052.5 "/>
<text text-anchor="start" x="240" y="-1037.3" font-family="Times,serif" font-size="14.00">id :int(11)</text>
<text text-anchor="start" x="240" y="-1022.3" font-family="Times,serif" font-size="14.00">nom :varchar(255)</text>
<text text-anchor="start" x="240" y="-1007.3" font-family="Times,serif" font-size="14.00">created_at :datetime</text>
<text text-anchor="start" x="240" y="-992.3" font-family="Times,serif" font-size="14.00">updated_at :datetime</text>
<text text-anchor="start" x="240" y="-977.3" font-family="Times,serif" font-size="14.00">latitude :float</text>
<text text-anchor="start" x="240" y="-962.3" font-family="Times,serif" font-size="14.00">longitude :float</text>
<text text-anchor="start" x="240" y="-947.3" font-family="Times,serif" font-size="14.00">address :varchar(255)</text>
<text text-anchor="start" x="240" y="-932.3" font-family="Times,serif" font-size="14.00">openW :int(11)</text>
<text text-anchor="start" x="240" y="-917.3" font-family="Times,serif" font-size="14.00">lastMesureUpdate :datetime</text>
</g>
<!-- Lieu&#45;&gt;RasbSec -->
<g id="edge3" class="edge"><title>Lieu&#45;&gt;RasbSec</title>
<path fill="none" stroke="#558135" d="M226.034,-907.048C214.011,-893.899 204.584,-881.784 201,-873 145.788,-737.671 169.807,-567.369 197.187,-454.483"/>
<ellipse fill="none" stroke="#558135" cx="229.001" cy="-910.229" rx="4.00002" ry="4.00002"/>
<polygon fill="#558135" stroke="#558135" points="197.19,-454.47 203.956,-445.84 198.388,-449.616 199.587,-444.762 199.587,-444.762 199.587,-444.762 198.388,-449.616 195.218,-443.683 197.19,-454.47 197.19,-454.47"/>
</g>
<!-- User -->
<g id="node5" class="node"><title>User</title>
<path fill="none" stroke="black" d="M222,-481.5C222,-481.5 412,-481.5 412,-481.5 418,-481.5 424,-487.5 424,-493.5 424,-493.5 424,-860.5 424,-860.5 424,-866.5 418,-872.5 412,-872.5 412,-872.5 222,-872.5 222,-872.5 216,-872.5 210,-866.5 210,-860.5 210,-860.5 210,-493.5 210,-493.5 210,-487.5 216,-481.5 222,-481.5"/>
<text text-anchor="middle" x="317" y="-857.3" font-family="Times,serif" font-size="14.00">User</text>
<polyline fill="none" stroke="black" points="210,-849.5 424,-849.5 "/>
<text text-anchor="start" x="218" y="-834.3" font-family="Times,serif" font-size="14.00">id :int(11)</text>
<text text-anchor="start" x="218" y="-819.3" font-family="Times,serif" font-size="14.00">email :varchar(255)</text>
<text text-anchor="start" x="218" y="-804.3" font-family="Times,serif" font-size="14.00">encrypted_password :varchar(255)</text>
<text text-anchor="start" x="218" y="-789.3" font-family="Times,serif" font-size="14.00">reset_password_token :varchar(255)</text>
<text text-anchor="start" x="218" y="-774.3" font-family="Times,serif" font-size="14.00">reset_password_sent_at :datetime</text>
<text text-anchor="start" x="218" y="-759.3" font-family="Times,serif" font-size="14.00">remember_created_at :datetime</text>
<text text-anchor="start" x="218" y="-744.3" font-family="Times,serif" font-size="14.00">sign_in_count :int(11)</text>
<text text-anchor="start" x="218" y="-729.3" font-family="Times,serif" font-size="14.00">current_sign_in_at :datetime</text>
<text text-anchor="start" x="218" y="-714.3" font-family="Times,serif" font-size="14.00">last_sign_in_at :datetime</text>
<text text-anchor="start" x="218" y="-699.3" font-family="Times,serif" font-size="14.00">current_sign_in_ip :varchar(255)</text>
<text text-anchor="start" x="218" y="-684.3" font-family="Times,serif" font-size="14.00">last_sign_in_ip :varchar(255)</text>
<text text-anchor="start" x="218" y="-669.3" font-family="Times,serif" font-size="14.00">created_at :datetime</text>
<text text-anchor="start" x="218" y="-654.3" font-family="Times,serif" font-size="14.00">updated_at :datetime</text>
<text text-anchor="start" x="218" y="-639.3" font-family="Times,serif" font-size="14.00">isAdmin :tinyint(1)</text>
<text text-anchor="start" x="218" y="-624.3" font-family="Times,serif" font-size="14.00">avatar_file_name :varchar(255)</text>
<text text-anchor="start" x="218" y="-609.3" font-family="Times,serif" font-size="14.00">avatar_content_type :varchar(255)</text>
<text text-anchor="start" x="218" y="-594.3" font-family="Times,serif" font-size="14.00">avatar_file_size :int(11)</text>
<text text-anchor="start" x="218" y="-579.3" font-family="Times,serif" font-size="14.00">avatar_updated_at :datetime</text>
<text text-anchor="start" x="218" y="-564.3" font-family="Times,serif" font-size="14.00">nom :varchar(255)</text>
<text text-anchor="start" x="218" y="-549.3" font-family="Times,serif" font-size="14.00">prenom :varchar(255)</text>
<text text-anchor="start" x="218" y="-534.3" font-family="Times,serif" font-size="14.00">username :varchar(255)</text>
<text text-anchor="start" x="218" y="-519.3" font-family="Times,serif" font-size="14.00">affichage :int(11)</text>
<text text-anchor="start" x="218" y="-504.3" font-family="Times,serif" font-size="14.00">affichageMail :tinyint(1)</text>
<text text-anchor="start" x="218" y="-489.3" font-family="Times,serif" font-size="14.00">affichageNomPrenom :tinyint(1)</text>
</g>
<!-- Lieu&#45;&gt;User -->
<g id="edge4" class="edge"><title>Lieu&#45;&gt;User</title>
<path fill="none" stroke="#13a375" d="M317,-898.894C317,-893.566 317,-888.119 317,-882.584"/>
<polygon fill="#13a375" stroke="#13a375" points="317,-899.132 312.5,-909.132 317,-904.132 317,-909.132 317,-909.132 317,-909.132 317,-904.132 321.5,-909.132 317,-899.132 317,-899.132"/>
<polygon fill="#13a375" stroke="#13a375" points="317,-882.532 321.5,-872.532 317,-877.532 317,-872.532 317,-872.532 317,-872.532 317,-877.532 312.5,-872.532 317,-882.532 317,-882.532"/>
</g>
<!-- Lieu&#45;&gt;Mesure -->
<g id="edge2" class="edge"><title>Lieu&#45;&gt;Mesure</title>
<path fill="none" stroke="#252bde" d="M407.966,-907.048C419.989,-893.899 429.416,-881.784 433,-873 526.763,-643.178 452.426,-344.447 401.908,-191.62"/>
<ellipse fill="none" stroke="#252bde" cx="404.999" cy="-910.229" rx="4.00002" ry="4.00002"/>
<polygon fill="#252bde" stroke="#252bde" points="401.785,-191.252 402.886,-180.342 400.201,-186.51 398.617,-181.767 398.617,-181.767 398.617,-181.767 400.201,-186.51 394.349,-183.193 401.785,-191.252 401.785,-191.252"/>
</g>
<!-- User&#45;&gt;RasbSec -->
<g id="edge6" class="edge"><title>User&#45;&gt;RasbSec</title>
<path fill="none" stroke="#0fadc8" d="M268.03,-473.333C266.523,-467.098 265.03,-460.918 263.558,-454.829"/>
<ellipse fill="none" stroke="#0fadc8" cx="268.983" cy="-477.278" rx="4.00001" ry="4.00001"/>
<polygon fill="#0fadc8" stroke="#0fadc8" points="263.453,-454.394 265.479,-443.617 262.279,-449.534 261.105,-444.674 261.105,-444.674 261.105,-444.674 262.279,-449.534 256.73,-445.731 263.453,-454.394 263.453,-454.394"/>
</g>
<!-- User&#45;&gt;Mesure -->
<g id="edge5" class="edge"><title>User&#45;&gt;Mesure</title>
<path fill="none" stroke="#d67010" d="M342.313,-473.317C343.274,-463.75 344.176,-454.274 345,-445 352.572,-359.771 357.828,-262.697 361.045,-191.947"/>
<ellipse fill="none" stroke="#d67010" cx="341.899" cy="-477.393" rx="4" ry="4"/>
<polygon fill="#d67010" stroke="#d67010" points="361.056,-191.694 366,-181.906 361.28,-186.699 361.505,-181.704 361.505,-181.704 361.505,-181.704 361.28,-186.699 357.009,-181.502 361.056,-191.694 361.056,-191.694"/>
</g>
</g>
</svg>
